<?xml version="1.0" encoding="iso-8859-1"?>
<!-- Generator: Adobe Illustrator 19.0.0, SVG Export Plug-In . SVG Version: 6.00 Build 0)  -->
<svg version="1.1" id="Layer_1" xmlns="http://www.w3.org/2000/svg" xmlns:xlink="http://www.w3.org/1999/xlink" x="0px" y="0px"
	 viewBox="0 0 496 496" style="enable-background:new 0 0 496 496;" xml:space="preserve">
<g>
	<g>
		<g>
			<path d="M456,80h-32h-11.744H284.688l-49.312,49.312l-7.96,3.616l-8.84-17.68l8.736-3.968l-6.616-14.56l-15.936,7.24
				l-44.656-82.92C153.12,8.064,139.624,0,124.888,0H0v48h104c6.48,0,12.272,3.864,14.768,9.84l29.848,71.632l-15.928,7.24
				l6.616,14.56l9.28-4.216l8.84,17.68L144,170.848V456c0,22.056,17.944,40,40,40h272c22.056,0,40-17.944,40-40V120
				C496,97.944,478.056,80,456,80z M291.312,96H398.92l-26.664,32H259.312L291.312,96z M212.84,139.56l-40.832,18.56l-8.84-17.68
				L204,121.88L212.84,139.56z M40,32H16V16h24V32z M80,32H56V16h24V32z M133.536,51.688C128.552,39.728,116.96,32,104,32h-8V16
				h28.888c8.84,0,16.944,4.832,21.136,12.616l44.144,81.976l-26.976,12.264L133.536,51.688z M480,456c0,13.232-10.768,24-24,24H184
				c-13.232,0-24-10.768-24-24V181.152L241.736,144h138.008l40-48H424h32c13.232,0,24,10.768,24,24V456z"/>
			<path d="M450.016,162.688L392.8,227.056C373.2,210.24,347.792,200,320,200c-27.728,0-53.08,10.184-72.664,26.936L206.072,178.8
				l-12.152,10.408l42.016,49.024C218.608,257.952,208,283.736,208,312c0,28.208,10.56,53.936,27.832,73.648l-57.816,65.04
				l11.96,10.624l57.216-64.376C266.8,413.76,292.208,424,320,424s53.2-10.24,72.8-27.056l57.216,64.376l11.96-10.624l-57.816-65.04
				C421.44,365.936,432,340.208,432,312s-10.56-53.936-27.832-73.648l57.816-65.04L450.016,162.688z M416,312
				c0,52.936-43.064,96-96,96c-52.936,0-96-43.064-96-96c0-52.936,43.064-96,96-96C372.936,216,416,259.064,416,312z"/>
			<rect x="400" y="448" width="16" height="16"/>
			<rect x="320" y="448" width="64" height="16"/>
			<path d="M320,291.304C310.2,274.984,292.384,264,272,264h-24v8c0,30.872,25.12,56,56,56h8v64h16v-64h8c30.88,0,56-25.128,56-56
				v-8h-24C347.616,264,329.8,274.984,320,291.304z M304,312c-19.32,0-35.48-13.768-39.192-32H272c19.32,0,35.48,13.768,39.192,32
				H304z M336,312h-7.192c3.712-18.232,19.88-32,39.192-32h7.192C371.48,298.232,355.32,312,336,312z"/>
			<rect x="280" y="344" width="16" height="16"/>
			<rect x="344" y="344" width="16" height="16"/>
		</g>
	</g>
</g>
<g>
</g>
<g>
</g>
<g>
</g>
<g>
</g>
<g>
</g>
<g>
</g>
<g>
</g>
<g>
</g>
<g>
</g>
<g>
</g>
<g>
</g>
<g>
</g>
<g>
</g>
<g>
</g>
<g>
</g>
</svg>
